HIERARCHY
ROOT Hips
{
 OFFSET 0.000000 0.000000 0.000000
 CHANNELS 6 Xposition Yposition Zposition Yrotation Xrotation Zrotation
 JOINT Chest
 {
  OFFSET 0.000000 9.585900 0.002600
  CHANNELS 3 Yrotation Xrotation Zrotation
  JOINT Chest2
  {
   OFFSET 0.000000 9.601200 -0.005300
   CHANNELS 3 Yrotation Xrotation Zrotation
   JOINT Chest3
   {
    OFFSET 0.000000 9.561800 0.000000
    CHANNELS 3 Yrotation Xrotation Zrotation
    JOINT Chest4
    {
     OFFSET 0.000000 9.552100 0.000000
     CHANNELS 3 Yrotation Xrotation Zrotation
     JOINT Neck
     {
      OFFSET 0.000000 14.453000 0.000000
      CHANNELS 3 Yrotation Xrotation Zrotation
      JOINT Head
      {
       OFFSET 0.000000 8.936500 -0.011300
       CHANNELS 3 Yrotation Xrotation Zrotation
       End Site
       {
        OFFSET 0.000000 17.073600 -0.006000
       }
      }
     }
     JOINT RightCollar
     {
      OFFSET -2.921100 9.558500 0.000000
      CHANNELS 3 Yrotation Xrotation Zrotation
      JOINT RightShoulder
      {
       OFFSET -13.519700 0.000000 0.000000
       CHANNELS 3 Yrotation Xrotation Zrotation
       JOINT RightElbow
       {
        OFFSET 0.000000 -29.696600 0.000000
        CHANNELS 3 Yrotation Xrotation Zrotation
        JOINT RightWrist
        {
         OFFSET 0.000000 -24.004700 0.000000
         CHANNELS 3 Yrotation Xrotation Zrotation
         End Site
         {
          OFFSET 0.000000 -17.728500 0.000000
         }
        }
       }
      }
     }
     JOINT LeftCollar
     {
      OFFSET 2.921100 9.558500 0.000000
      CHANNELS 3 Yrotation Xrotation Zrotation
      JOINT LeftShoulder
      {
       OFFSET 13.519700 0.000000 0.000000
       CHANNELS 3 Yrotation Xrotation Zrotation
       JOINT LeftElbow
       {
        OFFSET 0.000000 -29.696600 0.000000
        CHANNELS 3 Yrotation Xrotation Zrotation
        JOINT LeftWrist
        {
         OFFSET 0.000000 -24.004700 0.000000
         CHANNELS 3 Yrotation Xrotation Zrotation
         End Site
         {
          OFFSET 0.000000 -17.728500 0.000000
         }
        }
       }
      }
     }
    }
   }
  }
 }
 JOINT RightHip
 {
  OFFSET -7.771700 -0.012900 -0.001300
  CHANNELS 3 Yrotation Xrotation Zrotation
  JOINT RightKnee
  {
   OFFSET 0.000000 -40.869800 0.001200
   CHANNELS 3 Yrotation Xrotation Zrotation
   JOINT RightAnkle
   {
    OFFSET 0.000000 -39.717900 0.002100
    CHANNELS 3 Yrotation Xrotation Zrotation
    JOINT RightToe
    {
     OFFSET 0.000000 -4.965400 11.033500
     CHANNELS 3 Yrotation Xrotation Zrotation
     End Site
     {
      OFFSET 0.000000 -1.423100 5.872300
     }
    }
   }
  }
 }
 JOINT LeftHip
 {
  OFFSET 7.771700 -0.012900 -0.001300
  CHANNELS 3 Yrotation Xrotation Zrotation
  JOINT LeftKnee
  {
   OFFSET 0.000000 -40.869800 0.001200
   CHANNELS 3 Yrotation Xrotation Zrotation
   JOINT LeftAnkle
   {
    OFFSET 0.000000 -39.717900 0.002100
    CHANNELS 3 Yrotation Xrotation Zrotation
    JOINT LeftToe
    {
     OFFSET 0.000000 -4.965400 11.033500
     CHANNELS 3 Yrotation Xrotation Zrotation
     End Site
     {
      OFFSET 0.000000 -1.423100 5.872300
     }
    }
   }
  }
 }
}
MOTION
Frames: 5
Frame Time: 0.008333
-64.531855 63.080002 13.857473 166.609257 -49.141094 -2.659579 8.244139 25.413476 3.267416 1.284122 4.338647 0.065513 2.018141 6.873832 0.177953 6.466103 20.907943 1.303787 3.415059 16.201865 5.950063 4.280466 -5.724420 9.721319 6.044332 5.263818 7.359066 -0.445084 -14.508832 -11.321565 -146.860363 -80.126055 169.860293 21.950079 -1.103254 9.718507 -10.017850 0.554189 -0.767786 -12.552586 -17.234580 21.728011 -42.237705 -74.683990 16.370888 -1.610322 6.582315 1.122180 -6.578193 -11.634521 7.958405 -28.833169 74.606696 -26.454424 1.850212 -12.817884 -2.389280 -0.382531 0.728737 -0.184309 -7.941538 -18.312272 -2.852967 11.693272 62.007932 5.865449 0.377202 -1.581192 0.545824 -0.443466 -0.344119 0.034610
-64.527404 63.077638 13.851781 166.608830 -49.154133 -2.669403 8.239353 25.420226 3.284591 1.271263 4.334960 0.078122 2.025026 6.880082 0.169498 6.404117 20.907220 1.385149 3.410861 16.202134 5.820496 4.174799 -5.779421 9.618348 6.079514 5.299244 7.270021 -0.469129 -14.542774 -11.329323 -146.393398 -80.042602 169.409793 21.922622 -1.105705 9.686429 -10.007740 0.591757 -0.846138 -12.532782 -17.238707 21.712482 -42.366516 -74.693942 16.562188 -1.586022 6.567881 1.111123 -6.580497 -11.617686 7.962302 -28.853636 74.608704 -26.461278 1.859153 -12.830770 -2.403527 -0.378156 0.732752 -0.180357 -7.950973 -18.303336 -2.836683 11.728639 62.044501 5.893032 0.365246 -1.689820 0.483569 -0.446004 -0.332855 0.033573
-64.523019 63.076269 13.845576 166.598508 -49.176952 -2.668765 8.188808 25.421970 3.301609 1.295724 4.349020 0.065551 1.991870 6.880596 0.195304 6.422246 20.922680 1.352019 3.330782 16.172851 5.782651 4.118036 -5.807338 9.507506 6.049759 5.336361 7.315165 -0.415937 -14.576975 -11.403302 -145.898498 -79.956462 168.896855 21.892959 -1.109372 9.653282 -10.082991 0.668984 -0.801867 -12.452900 -17.311150 21.666904 -42.409465 -74.694458 16.642260 -1.588506 6.568309 1.102363 -6.577723 -11.592336 7.962994 -28.850981 74.612569 -26.451163 1.866510 -12.837568 -2.414803 -0.380826 0.732205 -0.178377 -7.949327 -18.285595 -2.827085 11.756256 62.079935 5.915370 0.358438 -1.784985 0.436841 -0.448040 -0.336647 0.018607
-64.519504 63.075350 13.839089 166.575707 -49.205561 -2.651871 8.190652 25.444951 3.307488 1.246447 4.337739 0.095476 2.006475 6.892765 0.185310 6.399450 20.933030 1.368986 3.265045 16.147934 5.699302 4.060070 -5.834407 9.399810 6.046752 5.375200 7.316268 -0.408785 -14.630968 -11.452419 -145.349796 -79.897777 168.377668 21.858428 -1.111817 9.614134 -10.110059 0.713973 -0.822022 -12.401000 -17.356280 21.641586 -42.437825 -74.691863 16.709659 -1.632559 6.588694 1.092581 -6.565263 -11.565561 7.953922 -28.854448 74.620001 -26.447716 1.880927 -12.839455 -2.422472 -0.388482 0.726178 -0.180533 -7.937205 -18.269210 -2.825736 11.791055 62.119785 5.941753 0.345596 -1.850014 0.420157 -0.447062 -0.371876 -0.023054
-64.509662 63.076804 13.832746 166.561142 -49.252852 -2.677304 8.207054 25.481722 3.356069 1.230542 4.334813 0.104752 2.000746 6.896701 0.190567 6.371864 20.940938 1.393932 3.216962 16.129874 5.619450 3.982000 -5.867993 9.298995 6.070601 5.394970 7.274473 -0.449842 -14.665544 -11.448423 -144.809331 -79.843653 167.872579 21.817556 -1.111390 9.569255 -10.128391 0.748730 -0.852532 -12.364039 -17.387655 21.630196 -42.680052 -74.645456 16.977192 -1.580508 6.575308 1.088754 -6.560001 -11.513434 7.985230 -28.879324 74.620651 -26.464168 1.900821 -12.829788 -2.427205 -0.402738 0.709694 -0.185363 -7.947101 -18.216725 -2.780675 11.876305 62.162971 6.009027 0.313193 -2.000055 0.325520 -0.458758 -0.340086 0.007671
